Coordinates
version=1
nRows=6
nColumns=34
inDegrees=yes

Units are S.I. units (second, meters, Newtons, ...)
Angles are in degrees.

endheader
time	pelvis_tilt	pelvis_list	pelvis_rotation	pelvis_tx	pelvis_ty	pelvis_tz	hip_flexion_r	hip_adduction_r	hip_rotation_r	knee_angle_r	ankle_angle_r	subtalar_angle_r	mtp_angle_r	hip_flexion_l	hip_adduction_l	hip_rotation_l	knee_angle_l	socket_flexion	socket_adduction	socket_rotation	socket_tx	socket_ty	socket_tz	pros_ankle_rx	pros_ankle_ry	pros_ankle_rz	pros_ankle_tx	pros_ankle_ty	pros_ankle_tz	foot_flex	lumbar_extension	lumbar_bending	lumbar_rotation
      0.30000000	      2.56097987	     -3.27500680	     -2.16446901	     -0.37768135	      1.05054412	      0.35079864	      8.11487318	     -1.96458564	     -8.24941986	    -63.97461466	     -2.02722517	     11.92858909	     17.34395408	      4.83017824	     -1.34431100	      0.77982252	    -16.46232101	      1.54023925	      0.00000000	      0.00000000	      0.00000000	     -0.01371022	      0.00000000	      0.00000000	      0.00000000	      0.00000000	      0.00000000	      0.00000000	      0.00000000	      5.73964078	    -20.33715643	     -6.78943110	      2.14720864
      0.30416667	      2.91522215	     -3.25862914	     -2.12868622	     -0.37193175	      1.05189827	      0.35057159	      8.25453060	     -2.04699717	     -8.36212728	    -63.89987381	     -0.96252549	     12.45645658	     17.06522075	      3.62225872	     -1.28918151	      0.79258026	    -15.21307842	      2.18233328	      0.00000000	      0.00000000	      0.00000000	     -0.01373301	      0.00000000	      0.00000000	      0.00000000	      0.00000000	      0.00000000	      0.00000000	      0.00000000	      5.88085083	    -20.64937857	     -6.79498353	      1.94054541
      0.30833333	      2.99805001	     -3.38673014	     -2.05052493	     -0.36669864	      1.05266313	      0.35030156	      8.74181706	     -1.89414000	     -8.46175855	    -63.81601035	     -0.08169979	     12.35078334	     17.12997329	      3.15053986	     -1.40325263	      0.81807884	    -15.12182812	      2.13331216	      0.00000000	      0.00000000	      0.00000000	     -0.01354170	      0.00000000	      0.00000000	      0.00000000	      0.00000000	      0.00000000	      0.00000000	      0.00000000	      6.04398373	    -20.69739653	     -6.57579820	      1.87698263
      0.31250000	      3.06343316	     -3.51581248	     -1.96676665	     -0.36144910	      1.05343799	      0.35003340	      9.22656775	     -1.73411096	     -8.56363963	    -63.65767204	      0.80408294	     12.33537426	     17.19357879	      2.67872442	     -1.52056990	      0.87042133	    -14.97679706	      2.12060019	      0.00000000	      0.00000000	      0.00000000	     -0.01334313	      0.00000000	      0.00000000	      0.00000000	      0.00000000	      0.00000000	      0.00000000	      0.00000000	      6.17544104	    -20.72796677	     -6.37631336	      1.76828599
      0.31666667	      3.13717679	     -3.63991994	     -1.87438506	     -0.35621484	      1.05418979	      0.34976969	      9.69338553	     -1.58153151	     -8.68228859	    -63.46779170	      1.67576073	     12.39355231	     17.24609587	      2.18254878	     -1.63336096	      0.91840137	    -14.76981524	      2.15534652	      0.00000000	      0.00000000	      0.00000000	     -0.01319055	      0.00000000	      0.00000000	      0.00000000	      0.00000000	      0.00000000	      0.00000000	      0.00000000	      6.29518586	    -20.76097231	     -6.16099845	      1.63371090
      0.32083333	      3.20543848	     -3.76651322	     -1.80028002	     -0.35100713	      1.05492395	      0.34949073	     10.15914773	     -1.44571899	     -8.82107847	    -63.20528155	      2.43282950	     12.46293780	     17.28380955	      1.69058849	     -1.74865700	      0.96909205	    -14.56642333	      2.18330826	      0.00000000	      0.00000000	      0.00000000	     -0.01302880	      0.00000000	      0.00000000	      0.00000000	      0.00000000	      0.00000000	      0.00000000	      0.00000000	      6.42824801	    -20.79141491	     -5.96839800	      1.51432450
